<mxfile host="app.diagrams.net" modified="2023-09-12T00:41:31.682Z" agent="Mozilla/5.0 (Windows NT 10.0; Win64; x64) AppleWebKit/537.36 (KHTML, like Gecko) Chrome/116.0.0.0 Safari/537.36 Edg/116.0.1938.76" etag="f-cVekJJYnR6mrNvHqtL" version="21.7.4" type="device">
  <diagram name="Página-1" id="NeZGEammpibMMV3sZfQA">
    <mxGraphModel dx="918" dy="526" grid="1" gridSize="10" guides="1" tooltips="1" connect="1" arrows="1" fold="1" page="1" pageScale="1" pageWidth="827" pageHeight="1169" math="0" shadow="0">
      <root>
        <mxCell id="0" />
        <mxCell id="1" parent="0" />
        <mxCell id="WpW9xHvRscjvkgBo0SY1-9" value="" style="html=1;points=[[0,0,0,0,5],[0,1,0,0,-5],[1,0,0,0,5],[1,1,0,0,-5]];perimeter=orthogonalPerimeter;outlineConnect=0;targetShapes=umlLifeline;portConstraint=eastwest;newEdgeStyle={&quot;curved&quot;:0,&quot;rounded&quot;:0};" vertex="1" parent="1">
          <mxGeometry x="195" y="160" width="20" height="180" as="geometry" />
        </mxCell>
        <mxCell id="WpW9xHvRscjvkgBo0SY1-10" value="Vendedor" style="shape=umlActor;verticalLabelPosition=bottom;verticalAlign=top;html=1;" vertex="1" parent="1">
          <mxGeometry x="190" y="80" width="30" height="60" as="geometry" />
        </mxCell>
        <mxCell id="WpW9xHvRscjvkgBo0SY1-11" value="lista de produtos" style="text;html=1;align=center;verticalAlign=middle;resizable=0;points=[];autosize=1;strokeColor=none;fillColor=none;rotation=-90;" vertex="1" parent="1">
          <mxGeometry x="150" y="230" width="110" height="30" as="geometry" />
        </mxCell>
        <mxCell id="WpW9xHvRscjvkgBo0SY1-16" value="" style="html=1;points=[[0,0,0,0,5],[0,1,0,0,-5],[1,0,0,0,5],[1,1,0,0,-5]];perimeter=orthogonalPerimeter;outlineConnect=0;targetShapes=umlLifeline;portConstraint=eastwest;newEdgeStyle={&quot;curved&quot;:0,&quot;rounded&quot;:0};" vertex="1" parent="1">
          <mxGeometry x="360" y="170" width="10" height="80" as="geometry" />
        </mxCell>
        <mxCell id="WpW9xHvRscjvkgBo0SY1-17" value="add item na venda" style="html=1;verticalAlign=bottom;endArrow=block;curved=0;rounded=0;entryX=0;entryY=0;entryDx=0;entryDy=5;" edge="1" target="WpW9xHvRscjvkgBo0SY1-16" parent="1">
          <mxGeometry relative="1" as="geometry">
            <mxPoint x="215" y="175" as="sourcePoint" />
          </mxGeometry>
        </mxCell>
        <mxCell id="WpW9xHvRscjvkgBo0SY1-19" value="" style="html=1;points=[[0,0,0,0,5],[0,1,0,0,-5],[1,0,0,0,5],[1,1,0,0,-5]];perimeter=orthogonalPerimeter;outlineConnect=0;targetShapes=umlLifeline;portConstraint=eastwest;newEdgeStyle={&quot;curved&quot;:0,&quot;rounded&quot;:0};" vertex="1" parent="1">
          <mxGeometry x="370" y="160" width="20" height="150" as="geometry" />
        </mxCell>
        <mxCell id="WpW9xHvRscjvkgBo0SY1-20" value="tela de venda" style="text;html=1;align=center;verticalAlign=middle;resizable=0;points=[];autosize=1;strokeColor=none;fillColor=none;rotation=-90;" vertex="1" parent="1">
          <mxGeometry x="330" y="220" width="100" height="30" as="geometry" />
        </mxCell>
        <mxCell id="WpW9xHvRscjvkgBo0SY1-21" value="" style="endArrow=block;dashed=1;endFill=0;endSize=12;html=1;rounded=0;" edge="1" parent="1" source="WpW9xHvRscjvkgBo0SY1-16">
          <mxGeometry width="160" relative="1" as="geometry">
            <mxPoint x="500" y="230" as="sourcePoint" />
            <mxPoint x="210" y="220" as="targetPoint" />
          </mxGeometry>
        </mxCell>
        <mxCell id="WpW9xHvRscjvkgBo0SY1-22" value="mais de um item" style="text;html=1;align=center;verticalAlign=middle;resizable=0;points=[];autosize=1;strokeColor=none;fillColor=none;" vertex="1" parent="1">
          <mxGeometry x="240" y="195" width="110" height="30" as="geometry" />
        </mxCell>
        <mxCell id="WpW9xHvRscjvkgBo0SY1-25" value="" style="html=1;points=[[0,0,0,0,5],[0,1,0,0,-5],[1,0,0,0,5],[1,1,0,0,-5]];perimeter=orthogonalPerimeter;outlineConnect=0;targetShapes=umlLifeline;portConstraint=eastwest;newEdgeStyle={&quot;curved&quot;:0,&quot;rounded&quot;:0};" vertex="1" parent="1">
          <mxGeometry x="230" y="230" width="20" height="80" as="geometry" />
        </mxCell>
        <mxCell id="WpW9xHvRscjvkgBo0SY1-30" value="remover item" style="html=1;verticalAlign=bottom;endArrow=block;curved=0;rounded=0;" edge="1" parent="1">
          <mxGeometry width="80" relative="1" as="geometry">
            <mxPoint x="370" y="260" as="sourcePoint" />
            <mxPoint x="250" y="260" as="targetPoint" />
          </mxGeometry>
        </mxCell>
        <mxCell id="WpW9xHvRscjvkgBo0SY1-31" value="remove item" style="text;html=1;align=center;verticalAlign=middle;resizable=0;points=[];autosize=1;strokeColor=none;fillColor=none;rotation=-90;" vertex="1" parent="1">
          <mxGeometry x="195" y="255" width="90" height="30" as="geometry" />
        </mxCell>
        <mxCell id="WpW9xHvRscjvkgBo0SY1-33" value="" style="endArrow=block;dashed=1;endFill=0;endSize=12;html=1;rounded=0;" edge="1" parent="1">
          <mxGeometry width="160" relative="1" as="geometry">
            <mxPoint x="250" y="280" as="sourcePoint" />
            <mxPoint x="370" y="280" as="targetPoint" />
          </mxGeometry>
        </mxCell>
        <mxCell id="WpW9xHvRscjvkgBo0SY1-34" value="" style="html=1;points=[[0,0,0,0,5],[0,1,0,0,-5],[1,0,0,0,5],[1,1,0,0,-5]];perimeter=orthogonalPerimeter;outlineConnect=0;targetShapes=umlLifeline;portConstraint=eastwest;newEdgeStyle={&quot;curved&quot;:0,&quot;rounded&quot;:0};" vertex="1" parent="1">
          <mxGeometry x="520" y="160" width="20" height="180" as="geometry" />
        </mxCell>
        <mxCell id="WpW9xHvRscjvkgBo0SY1-35" value="efetivação" style="text;html=1;align=center;verticalAlign=middle;resizable=0;points=[];autosize=1;strokeColor=none;fillColor=none;rotation=-90;" vertex="1" parent="1">
          <mxGeometry x="490" y="230" width="80" height="30" as="geometry" />
        </mxCell>
        <mxCell id="WpW9xHvRscjvkgBo0SY1-36" value="efetivação" style="html=1;verticalAlign=bottom;endArrow=block;curved=0;rounded=0;" edge="1" parent="1">
          <mxGeometry width="80" relative="1" as="geometry">
            <mxPoint x="390" y="180" as="sourcePoint" />
            <mxPoint x="520" y="180" as="targetPoint" />
            <Array as="points">
              <mxPoint x="460" y="180" />
            </Array>
          </mxGeometry>
        </mxCell>
        <mxCell id="WpW9xHvRscjvkgBo0SY1-37" value="" style="endArrow=block;dashed=1;endFill=0;endSize=12;html=1;rounded=0;" edge="1" parent="1" target="WpW9xHvRscjvkgBo0SY1-9">
          <mxGeometry width="160" relative="1" as="geometry">
            <mxPoint x="510" y="320" as="sourcePoint" />
            <mxPoint x="500" y="340" as="targetPoint" />
          </mxGeometry>
        </mxCell>
      </root>
    </mxGraphModel>
  </diagram>
</mxfile>
